<svg width="200" height="200" viewBox="0 0 200 200" fill="none" xmlns="http://www.w3.org/2000/svg">
<rect width="200" height="200" rx="10" fill="#384BFF"/>
<path d="M154.995 101.833C130.788 136.784 121.806 104.256 107.217 104.256C101.504 104.256 100 109.02 100 111.115C100 109.02 98.503 104.256 92.7902 104.256C78.1939 104.256 69.2187 136.784 45.0046 101.833C44.5385 140.162 79.811 149.261 99.9929 125.248C120.189 149.224 155.461 140.162 154.995 101.833Z" fill="white"/>
<path fill-rule="evenodd" clip-rule="evenodd" d="M130.333 98.1667C139.906 98.1667 147.667 89.9586 147.667 79.8333C147.667 69.7081 139.906 61.5 130.333 61.5C120.76 61.5 113 69.7081 113 79.8333C113 89.9586 120.76 98.1667 130.333 98.1667ZM130.333 95.1875C138.351 95.1875 144.85 88.3132 144.85 79.8333C144.85 71.3535 138.351 64.4792 130.333 64.4792C122.316 64.4792 115.817 71.3535 115.817 79.8333C115.817 88.3132 122.316 95.1875 130.333 95.1875Z" fill="white"/>
<path d="M115.925 89C117.405 89 116.748 86.8971 116.264 85.4986C115.47 83.2046 115.793 81.1091 114.659 79.2128C111.588 74.077 106.17 70.6667 100 70.6667C93.6399 70.6667 88.0799 74.2897 85.0642 79.6909C84.1315 81.3616 84.0842 83.5308 83.5905 85.4362C83.219 86.8701 82.5938 89 84.075 89C84.8528 89 84.7589 88.3296 84.8333 87.5107C84.9218 86.5373 85.8135 85.5919 86.0658 84.6802C87.8299 78.3034 93.4007 73.6458 100 73.6458C106.627 73.6458 112.218 78.3432 113.957 84.7619C114.197 85.6484 115.081 85.764 115.167 86.7083C115.241 87.5272 115.147 89 115.925 89Z" fill="white"/>
<path fill-rule="evenodd" clip-rule="evenodd" d="M69.6667 98.1667C79.2396 98.1667 87 89.9586 87 79.8333C87 69.7081 79.2396 61.5 69.6667 61.5C60.0937 61.5 52.3333 69.7081 52.3333 79.8333C52.3333 89.9586 60.0937 98.1667 69.6667 98.1667ZM69.6667 95.1875C77.684 95.1875 84.1833 88.3132 84.1833 79.8333C84.1833 71.3535 77.684 64.4792 69.6667 64.4792C61.6493 64.4792 55.15 71.3535 55.15 79.8333C55.15 88.3132 61.6493 95.1875 69.6667 95.1875Z" fill="white"/>
</svg>
